<?xml version="1.0" encoding="UTF-8" standalone="no"?>
<!-- Created with Inkscape (http://www.inkscape.org/) -->

<svg
   xmlns:dc="http://purl.org/dc/elements/1.1/"
   xmlns:cc="http://creativecommons.org/ns#"
   xmlns:rdf="http://www.w3.org/1999/02/22-rdf-syntax-ns#"
   xmlns:svg="http://www.w3.org/2000/svg"
   xmlns="http://www.w3.org/2000/svg"
   xmlns:sodipodi="http://sodipodi.sourceforge.net/DTD/sodipodi-0.dtd"
   xmlns:inkscape="http://www.inkscape.org/namespaces/inkscape"
   id="svg3002"
   version="1.1"
   inkscape:version="0.48.4 r9939"
   width="2062.5"
   height="450"
   xml:space="preserve"
   sodipodi:docname="blocks.pdf"><metadata
     id="metadata3008"><rdf:RDF><cc:Work
         rdf:about=""><dc:format>image/svg+xml</dc:format><dc:type
           rdf:resource="http://purl.org/dc/dcmitype/StillImage" /><dc:title></dc:title></cc:Work></rdf:RDF></metadata><defs
     id="defs3006" /><sodipodi:namedview
     pagecolor="#ffffff"
     bordercolor="#666666"
     borderopacity="1"
     objecttolerance="10"
     gridtolerance="10"
     guidetolerance="10"
     inkscape:pageopacity="0"
     inkscape:pageshadow="2"
     inkscape:window-width="640"
     inkscape:window-height="480"
     id="namedview3004"
     showgrid="false"
     inkscape:zoom="0.144"
     inkscape:cx="1031.25"
     inkscape:cy="225"
     inkscape:window-x="622"
     inkscape:window-y="260"
     inkscape:window-maximized="0"
     inkscape:current-layer="g3010" /><g
     id="g3010"
     inkscape:groupmode="layer"
     inkscape:label="blocks"
     transform="matrix(1.25,0,0,-1.25,0,450)"><path
       d="M 272.31,326.069 C 354.481,321.804 418.07,251.392 414.236,169.241 409.971,87.055 339.208,23.506 257.062,27.34 219.533,29.042 185.824,44.8 161.07,69.124 l 12.63,12.91 c 21.706,-21.336 51.135,-35.181 84.103,-36.688 l 0.115,0 c 72.45,-3.359 134.553,52.386 138.287,124.776 3.384,72.45 -52.346,134.162 -124.751,137.916 -38.31,1.877 -73.406,-12.71 -98.495,-37.799 l -12.77,12.77 c 28.568,28.568 68.73,45.168 112.121,43.06 z m 48.006,-150.391 -83.688,-62.868 0,125.752 83.688,-62.884 z m -286.78,97.319 103.386,0 c 7.604,0 14.352,-3.89 18.887,-9.641 4.535,-5.727 7.138,-13.376 7.138,-21.646 l 0,-130.152 c 0,-8.269 -2.603,-15.778 -7.138,-21.53 -4.535,-5.726 -11.283,-9.641 -18.887,-9.641 l -40.047,0 c -2.213,0 -5.006,1.977 -5.772,3.524 -0.761,1.522 -0.625,2.873 -0.625,2.873 l 0,0.741 0.14,0.766 4.495,16.755 -0.115,0 c 0.936,3.774 0.841,7.629 -0.396,10.382 -2.207,4.811 -5.726,7.824 -8.99,8.275 l -0.255,0 -0.371,0.115 -2.084,0.249 c 0.084,-0.053 -1.666,-0.479 -3.177,-1.501 l -0.14,0 -0.115,-0.115 c -2.443,-1.467 -4.751,-4.52 -6.002,-8.9 -0.471,-1.642 -0.471,-3.85 0,-5.492 l 0,-0.37 4.38,-19.538 0.255,-0.741 0,-0.626 -0.14,-0.881 c -0.055,-0.645 -0.31,-2.307 -1.737,-3.754 -1.447,-1.447 -2.994,-1.682 -3.639,-1.762 l -0.997,0 -38.424,0 c -7.609,0 -14.352,3.915 -18.887,9.641 -4.561,5.752 -7.139,13.261 -7.139,21.53 l 0,35.667 0,0.881 0,2.503 -0.14,7.138 0,7.254 0,2.503 0.14,1.111 0.255,1.021 0.626,1.482 0.486,0.766 0.881,0.881 1.507,0.856 2.247,0.511 1.137,0 1.111,-0.511 17.15,-6.743 0.115,0 c 2.057,-0.861 7.178,-0.04 8.645,1.737 1.272,1.782 1.682,1.762 2.133,2.503 0.505,0.861 1.211,2.408 1.366,6.027 l 0,0.115 c 0.371,6.473 -0.215,6.668 -1.877,10.382 -1.507,3.324 -4.085,5.362 -6.628,6.398 -2.543,1.016 -4.926,0.465 -4.89,0.485 l -0.231,-0.115 -0.395,-0.14 -7.879,-3.869 -4.125,-1.878 c -1.172,-0.545 -1.447,-0.901 -2.874,-1.366 l -0.996,-0.256 -0.881,0 -3.128,0.741 -1.507,1.392 -0.626,0.856 -0.37,0.626 -0.371,1.251 -0.14,0.881 0,1.252 -0.115,3.499 -0.14,10.267 -0.115,14.902 0,18.261 c -0.411,17.466 10.852,32.168 26.025,32.168 z m 0,-12.004 c -7.193,0 -14.352,-7.669 -14.021,-19.908 l 0,-18.517 0.14,-14.762 0.115,-5.517 5.632,2.618 0.51,0.141 c 4.711,2.523 9.892,2.132 14.877,0.115 5.167,-2.073 10.132,-6.217 13.026,-12.515 l 0.115,-0.115 c 1.547,-3.484 3.309,-8.039 2.898,-15.899 -0.255,-5.241 -1.567,-9.015 -3.128,-11.633 -1.607,-2.658 -3.7,-5.086 -2.644,-3.499 l -0.255,-0.256 -0.115,-0.14 C 44.954,154.128 35.709,152.641 28.16,155.73 l -0.115,0 -9.016,3.639 0,-1.506 0.115,-7.139 0,-2.363 0,-1.136 0,-35.667 c 0,-5.746 1.837,-10.772 4.52,-14.136 2.659,-3.384 5.902,-5.006 9.502,-5.006 l 31.541,0 -2.873,12.374 0,0.256 c -1.076,3.894 -1.116,7.879 0,11.774 1.912,6.707 5.847,12.394 11.263,15.758 l 0.371,0.14 c 3.028,1.972 5.922,3.359 9.386,3.359 l 4.38,-0.486 0.625,-0.14 0,-0.115 c 8.33,-1.406 14.332,-7.684 17.636,-14.762 l 0,-0.14 c 2.738,-6.022 2.698,-12.475 1.252,-18.262 l 0,-0.115 -0.116,0 -2.502,-9.641 32.793,0 c 3.594,0 6.843,1.622 9.501,5.006 2.658,3.364 4.495,8.39 4.495,14.136 l 0,130.152 c 0,5.747 -1.837,10.773 -4.495,14.137 -2.658,3.384 -5.907,5.146 -9.501,5.146 l -103.386,0"
       style="fill:#aa2fe7;fill-opacity:1;fill-rule:nonzero;stroke:none"
       id="path3012" /><path
       d="m 586.315,230.543 -14.331,0 0,54.05 c 0,4.425 0.286,9.845 0.858,16.258 l -0.224,0 c -0.821,-3.654 -1.555,-6.277 -2.202,-7.868 l -24.108,-62.44 -9.219,0 -24.164,61.974 c -0.685,1.827 -1.4,4.605 -2.146,8.334 l -0.224,0 c 0.348,-3.343 0.522,-8.8 0.522,-16.37 l 0,-53.938 -14.331,0 0,83.527 21.03,0 20.993,-55.635 c 1.605,-4.264 2.65,-7.446 3.135,-9.546 l 0.28,0 c 1.368,4.388 2.481,7.65 3.34,9.788 l 21.384,55.393 19.407,0 0,-83.527 z m 21.402,72.787 c -2.276,0 -4.223,0.724 -5.84,2.172 -1.617,1.448 -2.426,3.291 -2.426,5.528 0,2.225 0.809,4.083 2.426,5.575 1.617,1.491 3.564,2.237 5.84,2.237 2.364,0 4.364,-0.746 6,-2.237 1.635,-1.492 2.453,-3.35 2.453,-5.575 0,-2.113 -0.818,-3.925 -2.453,-5.435 -1.636,-1.51 -3.636,-2.265 -6,-2.265 z m 7.259,-72.788 -13.137,0 0,59.662 13.137,0 0,-59.662 z m 58.518,2.834 c -4.777,-2.685 -10.431,-4.027 -16.962,-4.027 -8.857,0 -16.007,2.75 -21.449,8.25 -5.443,5.5 -8.164,12.625 -8.164,21.376 0,9.769 2.92,17.616 8.761,23.538 5.84,5.923 13.649,8.884 23.427,8.884 5.437,0 10.232,-0.957 14.387,-2.871 l 0,-12.641 c -4.08,3.182 -8.434,4.773 -13.062,4.773 -5.61,0 -10.21,-1.914 -13.799,-5.742 -3.589,-3.829 -5.383,-8.838 -5.383,-15.028 0,-6.115 1.692,-10.944 5.075,-14.486 3.384,-3.543 7.925,-5.314 13.622,-5.314 4.79,0 9.305,1.591 13.547,4.773 l 0,-11.485 z m 45.382,43.702 c -1.667,1.591 -4.061,2.387 -7.184,2.387 -4.08,0 -7.486,-1.815 -10.216,-5.444 -2.731,-3.63 -4.096,-8.564 -4.096,-14.804 l 0,-28.675 -13.137,0 0,59.662 13.137,0 0,-12.081 0.242,0 c 1.344,4.176 3.412,7.433 6.205,9.769 2.793,2.337 5.906,3.505 9.339,3.505 2.501,0 4.404,-0.379 5.71,-1.137 l 0,-13.182 z m 34.242,-47.729 c -9.318,0 -16.757,2.769 -22.318,8.306 -5.56,5.537 -8.341,12.88 -8.341,22.028 0,9.956 2.899,17.731 8.696,23.324 5.797,5.594 13.61,8.391 23.437,8.391 9.442,0 16.797,-2.719 22.066,-8.157 5.268,-5.438 7.902,-12.986 7.902,-22.644 0,-9.446 -2.839,-17.016 -8.518,-22.709 -5.679,-5.693 -13.32,-8.539 -22.924,-8.539 z m 0.69,51.309 c -5.249,0 -9.398,-1.827 -12.446,-5.481 -3.048,-3.655 -4.572,-8.695 -4.572,-15.121 0,-6.19 1.543,-11.065 4.628,-14.626 3.085,-3.561 7.215,-5.342 12.39,-5.342 5.275,0 9.33,1.75 12.167,5.249 2.836,3.499 4.254,8.48 4.254,14.943 0,6.5 -1.418,11.522 -4.254,15.065 -2.837,3.542 -6.892,5.313 -12.167,5.313 z m 37.918,-47.86 0,13.256 c 5.001,-3.977 10.518,-5.966 16.552,-5.966 8.073,0 12.11,2.132 12.11,6.395 0,1.355 -0.345,2.505 -1.035,3.449 -0.691,0.945 -1.624,1.784 -2.799,2.517 -1.176,0.734 -2.563,1.39 -4.162,1.968 l -5.346,1.966 c -2.426,0.957 -4.612,1.977 -6.559,3.058 -1.947,1.081 -3.567,2.305 -4.861,3.673 -1.293,1.367 -2.267,2.921 -2.92,4.661 -0.653,1.74 -0.98,3.766 -0.98,6.078 0,2.859 0.685,5.379 2.053,7.56 1.368,2.182 3.206,4.015 5.514,5.501 2.308,1.485 4.926,2.604 7.856,3.356 2.93,0.752 5.962,1.128 9.097,1.128 5.548,0 10.512,-0.902 14.891,-2.704 l 0,-12.809 c -4.093,3.182 -8.796,4.773 -14.108,4.773 -1.666,0 -3.172,-0.155 -4.515,-0.466 -1.344,-0.311 -2.491,-0.739 -3.443,-1.286 -0.952,-0.547 -1.692,-1.206 -2.221,-1.977 -0.528,-0.77 -0.793,-1.622 -0.793,-2.554 0,-1.268 0.271,-2.346 0.812,-3.235 0.541,-0.889 1.344,-1.672 2.407,-2.349 1.064,-0.677 2.336,-1.296 3.816,-1.855 l 5.132,-1.827 c 2.538,-1.032 4.82,-2.089 6.848,-3.17 2.028,-1.081 3.757,-2.308 5.187,-3.682 1.431,-1.373 2.532,-2.955 3.303,-4.745 0.772,-1.79 1.157,-3.921 1.157,-6.395 0,-3.008 -0.709,-5.631 -2.127,-7.868 -1.418,-2.237 -3.309,-4.089 -5.673,-5.556 -2.363,-1.467 -5.094,-2.557 -8.191,-3.272 -3.098,-0.715 -6.364,-1.072 -9.797,-1.072 -6.618,0 -12.353,1.15 -17.205,3.449 z m 79.624,-3.449 c -9.318,0 -16.757,2.769 -22.318,8.306 -5.561,5.537 -8.341,12.88 -8.341,22.028 0,9.956 2.899,17.731 8.696,23.325 5.797,5.593 13.609,8.39 23.437,8.39 9.442,0 16.797,-2.719 22.065,-8.157 5.269,-5.438 7.903,-12.986 7.903,-22.644 0,-9.446 -2.84,-17.016 -8.518,-22.709 -5.679,-5.693 -13.321,-8.539 -22.924,-8.539 z m 0.69,51.309 c -5.25,0 -9.399,-1.827 -12.446,-5.481 -3.048,-3.655 -4.572,-8.695 -4.572,-15.121 0,-6.189 1.543,-11.065 4.628,-14.626 3.085,-3.561 7.215,-5.342 12.39,-5.342 5.275,0 9.33,1.75 12.166,5.249 2.837,3.499 4.255,8.48 4.255,14.943 0,6.501 -1.418,11.522 -4.255,15.065 -2.836,3.542 -6.891,5.313 -12.166,5.313 z m 73.148,27.445 c -1.903,0.796 -4.074,1.193 -6.512,1.193 -6.842,0 -10.263,-3.685 -10.263,-11.056 l 0,-8.036 14.387,0 0,-10.739 -14.331,0 0,-48.923 -13.137,0 0,48.923 -10.748,0 0,10.739 10.748,0 0,9.621 c 0,6.252 2.081,11.184 6.242,14.795 4.161,3.61 9.364,5.416 15.609,5.416 3.371,0 6.04,-0.354 8.005,-1.063 l 0,-10.87 z M 982.807,231.4 c -2.612,-1.367 -6.045,-2.051 -10.3,-2.051 -11.445,0 -17.167,5.525 -17.167,16.575 l 0,33.541 -9.554,0 0,10.739 9.554,0 0,14.003 13.137,3.896 0,-17.899 14.33,0 0,-10.739 -14.33,0 0,-29.607 c 0,-3.505 0.643,-6.01 1.931,-7.514 1.287,-1.504 3.43,-2.256 6.428,-2.256 2.302,0 4.292,0.796 5.971,2.387 l 0,-11.075 z M 495.309,59.287 l 0,124.218 39.206,0 c 11.96,0 21.429,-2.597 28.407,-7.792 6.978,-5.194 10.467,-11.959 10.467,-20.296 0,-6.969 -1.964,-13.027 -5.892,-18.175 -3.928,-5.148 -9.358,-8.804 -16.29,-10.966 l 0,-0.361 c 8.355,-0.979 15.028,-4.168 20.019,-9.566 4.991,-5.397 7.486,-12.412 7.486,-21.045 0,-10.721 -4.15,-19.404 -12.449,-26.049 -8.3,-6.646 -18.781,-9.968 -31.443,-9.968 l -39.511,0 z m 21.294,108.247 0,-35.491 13.032,0 c 7.006,0 12.5,1.696 16.484,5.088 3.983,3.392 5.975,8.193 5.975,14.404 0,10.666 -6.95,15.999 -20.851,15.999 l -14.64,0 z m 0,-51.462 0,-40.814 17.219,0 c 7.523,0 13.337,1.843 17.44,5.531 4.104,3.688 6.156,8.767 6.156,15.236 0,13.365 -8.744,20.047 -26.23,20.047 l -14.585,0 z m 101.149,-56.785 -19.52,0 0,131.316 19.52,0 0,-131.316 z m 66.851,-1.775 c -13.845,0 -24.899,4.118 -33.162,12.353 -8.263,8.235 -12.394,19.155 -12.394,32.759 0,14.807 4.307,26.369 12.921,34.687 8.614,8.318 20.222,12.477 34.825,12.477 14.03,0 24.959,-4.043 32.788,-12.13 7.828,-8.087 11.742,-19.312 11.742,-33.675 0,-14.048 -4.219,-25.306 -12.657,-33.772 -8.439,-8.466 -19.793,-12.699 -34.063,-12.699 z m 1.026,76.306 c -7.801,0 -13.966,-2.718 -18.494,-8.152 -4.529,-5.435 -6.794,-12.93 -6.794,-22.487 0,-9.205 2.293,-16.456 6.877,-21.752 4.584,-5.296 10.721,-7.944 18.411,-7.944 7.837,0 13.863,2.602 18.078,7.805 4.214,5.204 6.322,12.612 6.322,22.224 0,9.667 -2.108,17.135 -6.322,22.403 -4.215,5.268 -10.241,7.903 -18.078,7.903 z M 814.727,63.501 c -7.098,-3.992 -15.5,-5.989 -25.204,-5.989 -13.161,0 -23.786,4.09 -31.873,12.27 -8.087,8.179 -12.13,18.776 -12.13,31.789 0,14.529 4.339,26.197 13.018,35.005 8.678,8.808 20.282,13.212 34.811,13.212 8.078,0 15.204,-1.423 21.378,-4.27 l 0,-18.799 c -6.063,4.732 -12.533,7.099 -19.409,7.099 -8.337,0 -15.172,-2.847 -20.505,-8.54 -5.332,-5.694 -7.999,-13.143 -7.999,-22.348 0,-9.095 2.514,-16.276 7.542,-21.545 5.028,-5.268 11.775,-7.902 20.241,-7.902 7.117,0 13.827,2.366 20.13,7.098 l 0,-17.08 z m 101.149,-4.214 -25.481,0 -36.268,42.644 -0.36,0 0,-42.644 -19.52,0 0,131.316 19.52,0 0,-83.237 0.36,0 34.049,40.648 24.151,0 -38.097,-42.811 41.646,-45.916 z m 131.316,0 -69.207,0 0,124.218 65.658,0 0,-17.746 -44.363,0 0,-35.491 40.814,0 0,-17.745 -40.814,0 0,-35.491 47.912,0 0,-17.745 z m 99.375,0 -19.52,0 0,15.416 -0.333,0 c -6.415,-11.46 -16.285,-17.191 -29.613,-17.191 -10.814,0 -19.469,3.947 -25.967,11.84 -6.497,7.893 -9.746,18.632 -9.746,32.219 0,14.584 3.591,26.267 10.772,35.047 7.182,8.78 16.752,13.17 28.712,13.17 11.849,0 20.463,-4.778 25.842,-14.334 l 0.333,0 0,55.149 19.52,0 0,-131.316 z m -19.243,40.62 0,11.507 c 0,6.248 -1.992,11.544 -5.975,15.888 -3.984,4.344 -9.053,6.516 -15.209,6.516 -7.283,0 -13.013,-2.773 -17.191,-8.319 -4.177,-5.545 -6.266,-13.244 -6.266,-23.096 0,-8.929 2.005,-15.981 6.017,-21.156 4.011,-5.176 9.399,-7.764 16.165,-7.764 6.673,0 12.084,2.505 16.234,7.514 4.15,5.01 6.225,11.313 6.225,18.91 z m 54.595,67.627 c -3.383,0 -6.276,1.077 -8.679,3.23 -2.403,2.154 -3.604,4.894 -3.604,8.221 0,3.309 1.201,6.073 3.604,8.291 2.403,2.218 5.296,3.327 8.679,3.327 3.512,0 6.483,-1.109 8.914,-3.327 2.431,-2.218 3.646,-4.982 3.646,-8.291 0,-3.142 -1.215,-5.836 -3.646,-8.082 -2.431,-2.246 -5.402,-3.369 -8.914,-3.369 z m 10.786,-108.247 -19.52,0 0,88.727 19.52,0 0,-88.727 z m 72.756,1.275 c -3.882,-2.033 -8.984,-3.05 -15.305,-3.05 -17.006,0 -25.509,8.217 -25.509,24.65 l 0,49.881 -14.197,0 0,15.971 14.197,0 0,20.823 19.52,5.795 0,-26.618 21.294,0 0,-15.971 -21.294,0 0,-44.031 c 0,-5.212 0.956,-8.937 2.869,-11.174 1.914,-2.236 5.098,-3.355 9.553,-3.355 3.419,0 6.377,1.183 8.872,3.549 l 0,-16.47 z m 57.978,-3.05 c -13.845,0 -24.899,4.118 -33.162,12.353 -8.263,8.235 -12.394,19.155 -12.394,32.759 0,14.807 4.307,26.369 12.921,34.687 8.614,8.318 20.222,12.478 34.825,12.478 14.03,0 24.96,-4.044 32.788,-12.131 7.828,-8.087 11.742,-19.312 11.742,-33.675 0,-14.048 -4.219,-25.306 -12.657,-33.772 -8.439,-8.466 -19.793,-12.699 -34.063,-12.699 z m 1.026,76.306 c -7.801,0 -13.965,-2.718 -18.494,-8.152 -4.529,-5.435 -6.794,-12.93 -6.794,-22.487 0,-9.205 2.293,-16.456 6.877,-21.752 4.584,-5.296 10.721,-7.944 18.411,-7.944 7.837,0 13.863,2.602 18.078,7.805 4.215,5.204 6.322,12.612 6.322,22.224 0,9.667 -2.107,17.135 -6.322,22.403 -4.215,5.269 -10.241,7.903 -18.078,7.903 z m 116.676,-5.324 c -2.477,2.366 -6.035,3.549 -10.675,3.549 -6.063,0 -11.123,-2.699 -15.18,-8.096 -4.058,-5.398 -6.087,-12.736 -6.087,-22.016 l 0,-42.644 -19.52,0 0,88.727 19.52,0 0,-17.967 0.361,0 c 1.996,6.211 5.069,11.054 9.219,14.529 4.15,3.475 8.776,5.213 13.878,5.213 3.715,0 6.543,-0.564 8.484,-1.692 l 0,-19.603"
       style="fill:#7e7e7e;fill-opacity:1;fill-rule:nonzero;stroke:none"
       id="path3014" /></g></svg>