<?xml version="1.0" encoding="UTF-8" standalone="no"?>
<!-- Created with Inkscape (http://www.inkscape.org/) -->

<svg
   xmlns:dc="http://purl.org/dc/elements/1.1/"
   xmlns:cc="http://creativecommons.org/ns#"
   xmlns:rdf="http://www.w3.org/1999/02/22-rdf-syntax-ns#"
   xmlns:svg="http://www.w3.org/2000/svg"
   xmlns="http://www.w3.org/2000/svg"
   xmlns:sodipodi="http://sodipodi.sourceforge.net/DTD/sodipodi-0.dtd"
   xmlns:inkscape="http://www.inkscape.org/namespaces/inkscape"
   id="svg3016"
   version="1.1"
   inkscape:version="0.48.4 r9939"
   width="2062.5"
   height="450"
   xml:space="preserve"
   sodipodi:docname="td.pdf"><metadata
     id="metadata3022"><rdf:RDF><cc:Work
         rdf:about=""><dc:format>image/svg+xml</dc:format><dc:type
           rdf:resource="http://purl.org/dc/dcmitype/StillImage" /><dc:title></dc:title></cc:Work></rdf:RDF></metadata><defs
     id="defs3020" /><sodipodi:namedview
     pagecolor="#ffffff"
     bordercolor="#666666"
     borderopacity="1"
     objecttolerance="10"
     gridtolerance="10"
     guidetolerance="10"
     inkscape:pageopacity="0"
     inkscape:pageshadow="2"
     inkscape:window-width="640"
     inkscape:window-height="480"
     id="namedview3018"
     showgrid="false"
     inkscape:zoom="0.13866667"
     inkscape:cx="1031.25"
     inkscape:cy="225"
     inkscape:window-x="0"
     inkscape:window-y="0"
     inkscape:window-maximized="0"
     inkscape:current-layer="g3024" /><g
     id="g3024"
     inkscape:groupmode="layer"
     inkscape:label="td"
     transform="matrix(1.25,0,0,-1.25,0,450)"><path
       d="m 297.44,177.113 -84.015,-63.114 0,126.243 84.015,-63.129 z M 235.938,328.835 C 319.094,331.76 388.234,266.45 391.214,183.842 393.787,101.159 328.557,31.647 245.874,29.079 194.026,27.35 147.642,52.141 119.354,91.128 l 15.192,11.051 c 24.795,-34.153 65.235,-55.888 110.7,-54.395 72.471,2.256 129.52,62.938 127.263,135.43 -2.633,72.557 -62.918,129.404 -135.827,126.776 l -0.115,0 c -37.178,-1.121 -70.04,-17.529 -93.343,-43.088 l -13.96,12.679 c 26.544,29.092 64.31,47.937 106.674,49.254 z M 75.125,281.606 c 40.831,0 74.381,-33.137 74.381,-74.381 0,-41.244 -33.55,-74.266 -74.381,-74.266 C 34.293,132.959 0,165.881 0,207.225 c 0,41.339 34.293,74.381 75.125,74.381 z m 0,-12.82 c -33.942,0 -62.305,-27.328 -62.305,-61.561 0,-28.795 20.039,-52.595 46.585,-59.453 l -11.92,42.904 -2,6.986 59.049,0 -2.282,-7.126 -12.815,-43.105 c 27.064,6.369 47.249,30.443 47.249,59.794 0,34.334 -27.619,61.561 -61.561,61.561 z m 0,-123.007 1.813,0.026 12.263,40.69 -28.64,0 11.268,-40.63 3.296,-0.086 z m -34.178,-15.704 66.331,0 0,-6.83 -66.331,-5.221 0,12.051 z m 66.331,-11.659 0,-9.247 -66.331,-5.221 0,9.246 66.331,5.222 z m 0,-14.076 0,-8.031 -65.527,-5.221 -0.804,8.03 66.331,5.222 z m -63.914,-17.685 10.855,0.804 42.204,3.629 10.463,0.809 -0.412,-1.221 -1.588,-4.021 -2.83,-6.03 c -1.196,-2 -2.804,-4.418 -5.221,-6.438 -2.412,-2 -5.634,-4.005 -9.247,-5.613 -3.608,-1.608 -7.634,-2.417 -10.855,-2.83 -3.608,-0.391 -6.437,0 -9.247,0.413 -2.804,0.809 -6.025,1.613 -8.437,3.221 -2.418,1.196 -4.83,2.809 -6.835,4.417 -2.02,1.608 -3.628,3.614 -5.241,6.026 -1.609,2.025 -2.805,4.025 -3.609,6.834"
       style="fill:#0095ff;fill-opacity:1;fill-rule:nonzero;stroke:none"
       id="path3026" /><path
       d="m 563.884,231.154 -14.38,0 0,54.236 c 0,4.44 0.287,9.878 0.862,16.314 l -0.225,0 c -0.824,-3.667 -1.56,-6.298 -2.21,-7.895 l -24.191,-62.655 -9.25,0 -24.248,62.187 c -0.687,1.834 -1.404,4.621 -2.153,8.363 l -0.225,0 c 0.349,-3.355 0.524,-8.83 0.524,-16.426 l 0,-54.124 -14.38,0 0,83.815 21.102,0 21.065,-55.827 c 1.61,-4.278 2.659,-7.471 3.146,-9.579 l 0.281,0 c 1.373,4.403 2.49,7.677 3.351,9.822 l 21.458,55.584 19.473,0 0,-83.815 z m 21.476,73.036 c -2.284,0 -4.238,0.726 -5.86,2.179 -1.623,1.453 -2.435,3.302 -2.435,5.547 0,2.233 0.812,4.097 2.435,5.594 1.622,1.497 3.576,2.245 5.86,2.245 2.372,0 4.379,-0.748 6.02,-2.245 1.642,-1.497 2.462,-3.361 2.462,-5.594 0,-2.12 -0.82,-3.938 -2.462,-5.453 -1.641,-1.516 -3.648,-2.273 -6.02,-2.273 z m 7.284,-73.039 -13.182,0 0,59.868 13.182,0 0,-59.868 z m 58.719,2.844 c -4.793,-2.694 -10.466,-4.041 -17.02,-4.041 -8.888,0 -16.062,2.759 -21.524,8.278 -5.461,5.52 -8.191,12.669 -8.191,21.45 0,9.803 2.93,17.676 8.791,23.619 5.86,5.943 13.696,8.915 23.508,8.915 5.455,0 10.267,-0.96 14.436,-2.881 l 0,-12.685 c -4.094,3.193 -8.463,4.79 -13.107,4.79 -5.629,0 -10.245,-1.921 -13.846,-5.762 -3.602,-3.842 -5.402,-8.868 -5.402,-15.079 0,-6.137 1.698,-10.982 5.093,-14.537 3.395,-3.555 7.951,-5.332 13.669,-5.332 4.806,0 9.337,1.597 13.593,4.79 l 0,-11.525 z m 45.538,43.853 c -1.672,1.596 -4.075,2.395 -7.208,2.395 -4.095,0 -7.512,-1.821 -10.252,-5.463 -2.74,-3.642 -4.11,-8.594 -4.11,-14.855 l 0,-28.774 -13.182,0 0,59.868 13.182,0 0,-12.123 0.243,0 c 1.349,4.19 3.424,7.458 6.226,9.803 2.803,2.345 5.926,3.517 9.372,3.517 2.509,0 4.419,-0.38 5.729,-1.141 l 0,-13.227 z m 34.36,-47.894 c -9.35,0 -16.815,2.778 -22.394,8.335 -5.58,5.556 -8.37,12.924 -8.37,22.104 0,9.99 2.908,17.792 8.725,23.404 5.817,5.613 13.657,8.419 23.518,8.419 9.475,0 16.855,-2.728 22.141,-8.185 5.287,-5.457 7.93,-13.031 7.93,-22.721 0,-9.479 -2.849,-17.075 -8.547,-22.788 -5.699,-5.712 -13.366,-8.568 -23.003,-8.568 z m 0.693,51.486 c -5.268,0 -9.431,-1.833 -12.489,-5.5 -3.059,-3.667 -4.588,-8.725 -4.588,-15.173 0,-6.211 1.548,-11.103 4.644,-14.677 3.095,-3.573 7.24,-5.36 12.433,-5.36 5.292,0 9.362,1.756 12.208,5.267 2.846,3.511 4.269,8.509 4.269,14.995 0,6.522 -1.423,11.561 -4.269,15.116 -2.846,3.555 -6.916,5.332 -12.208,5.332 z m 38.048,-48.025 0,13.302 c 5.018,-3.991 10.554,-5.987 16.608,-5.987 8.102,0 12.152,2.139 12.152,6.417 0,1.36 -0.346,2.514 -1.039,3.461 -0.693,0.948 -1.629,1.79 -2.808,2.526 -1.18,0.736 -2.572,1.394 -4.176,1.974 l -5.365,1.974 c -2.434,0.96 -4.628,1.983 -6.581,3.068 -1.954,1.085 -3.579,2.313 -4.878,3.685 -1.298,1.372 -2.275,2.931 -2.93,4.677 -0.655,1.747 -0.983,3.78 -0.983,6.099 0,2.869 0.686,5.398 2.06,7.587 1.373,2.189 3.217,4.028 5.533,5.519 2.315,1.49 4.943,2.613 7.883,3.367 2.939,0.755 5.982,1.132 9.127,1.132 5.568,0 10.549,-0.904 14.943,-2.712 l 0,-12.853 c -4.107,3.193 -8.826,4.789 -14.156,4.789 -1.673,0 -3.183,-0.156 -4.531,-0.468 -1.348,-0.312 -2.5,-0.742 -3.455,-1.291 -0.955,-0.548 -1.698,-1.209 -2.228,-1.983 -0.531,-0.773 -0.796,-1.627 -0.796,-2.563 0,-1.272 0.272,-2.354 0.815,-3.246 0.543,-0.892 1.348,-1.677 2.415,-2.357 1.067,-0.68 2.344,-1.3 3.829,-1.862 l 5.149,-1.833 c 2.547,-1.035 4.837,-2.095 6.872,-3.181 2.035,-1.085 3.77,-2.316 5.205,-3.694 1.436,-1.378 2.541,-2.965 3.315,-4.762 0.774,-1.796 1.161,-3.935 1.161,-6.417 0,-3.018 -0.712,-5.65 -2.135,-7.895 -1.423,-2.245 -3.32,-4.103 -5.692,-5.575 -2.372,-1.472 -5.112,-2.566 -8.22,-3.283 -3.108,-0.717 -6.385,-1.076 -9.83,-1.076 -6.641,0 -12.396,1.154 -17.264,3.461 z m 79.897,-3.461 c -9.35,0 -16.814,2.778 -22.394,8.335 -5.58,5.556 -8.37,12.924 -8.37,22.104 0,9.99 2.908,17.792 8.725,23.404 5.817,5.613 13.657,8.419 23.518,8.419 9.475,0 16.855,-2.728 22.142,-8.185 5.286,-5.456 7.929,-13.031 7.929,-22.721 0,-9.479 -2.849,-17.075 -8.547,-22.788 -5.699,-5.712 -13.366,-8.568 -23.003,-8.568 z m 0.693,51.486 c -5.268,0 -9.431,-1.833 -12.489,-5.5 -3.059,-3.667 -4.588,-8.725 -4.588,-15.173 0,-6.211 1.548,-11.103 4.644,-14.677 3.096,-3.573 7.24,-5.36 12.433,-5.36 5.292,0 9.362,1.756 12.208,5.267 2.846,3.511 4.269,8.509 4.269,14.995 0,6.523 -1.423,11.561 -4.269,15.116 -2.846,3.555 -6.916,5.332 -12.208,5.332 z m 73.399,27.539 c -1.909,0.799 -4.088,1.198 -6.534,1.198 -6.866,0 -10.299,-3.698 -10.299,-11.094 l 0,-8.064 14.437,0 0,-10.776 -14.381,0 0,-49.092 -13.182,0 0,49.092 -10.785,0 0,10.776 10.785,0 0,9.654 c 0,6.273 2.088,11.222 6.264,14.845 4.175,3.623 9.396,5.435 15.663,5.435 3.382,0 6.06,-0.355 8.032,-1.067 l 0,-10.907 z m 37.749,-76.967 c -2.621,-1.372 -6.067,-2.058 -10.336,-2.058 -11.484,0 -17.226,5.544 -17.226,16.632 l 0,33.657 -9.587,0 0,10.776 9.587,0 0,14.05 13.182,3.91 0,-17.96 14.38,0 0,-10.776 -14.38,0 0,-29.709 c 0,-3.518 0.646,-6.031 1.938,-7.54 1.292,-1.509 3.442,-2.264 6.45,-2.264 2.31,0 4.307,0.799 5.992,2.395 l 0,-11.113 z m -401.496,-67.456 -35.613,0 0,-106.837 -21.368,0 0,106.837 -35.612,0 0,17.807 92.593,0 0,-17.807 z m 36.81,-108.618 c -13.893,0 -24.985,4.132 -33.276,12.395 -8.291,8.263 -12.437,19.221 -12.437,32.872 0,14.857 4.322,26.459 12.965,34.805 8.644,8.347 20.292,12.521 34.946,12.521 14.078,0 25.044,-4.058 32.9,-12.173 7.855,-8.115 11.783,-19.378 11.783,-33.789 0,-14.097 -4.234,-25.393 -12.701,-33.888 -8.468,-8.495 -19.861,-12.743 -34.18,-12.743 z m 1.029,76.567 c -7.828,0 -14.013,-2.727 -18.558,-8.18 -4.544,-5.453 -6.816,-12.974 -6.816,-22.563 0,-9.237 2.3,-16.513 6.9,-21.827 4.6,-5.314 10.758,-7.971 18.474,-7.971 7.865,0 13.911,2.611 18.14,7.832 4.229,5.221 6.344,12.655 6.344,22.3 0,9.7 -2.115,17.193 -6.344,22.479 -4.229,5.287 -10.275,7.93 -18.14,7.93 z m 142.007,-74.786 -19.588,0 0,14.412 -0.333,0 c -5.825,-10.795 -14.858,-16.193 -27.1,-16.193 -20.885,0 -31.328,12.595 -31.328,37.783 l 0,53.029 19.587,0 0,-50.886 c 0,-15.934 6.195,-23.9 18.586,-23.9 5.991,0 10.92,2.193 14.787,6.58 3.868,4.387 5.801,10.132 5.801,17.236 l 0,50.97 19.588,0 0,-89.031 z m 90.813,4.229 c -7.123,-4.006 -15.553,-6.01 -25.291,-6.01 -13.207,0 -23.867,4.104 -31.982,12.312 -8.115,8.207 -12.173,18.84 -12.173,31.898 0,14.579 4.355,26.287 13.063,35.126 8.709,8.838 20.352,13.257 34.931,13.257 8.106,0 15.256,-1.428 21.452,-4.285 l 0,-18.863 c -6.084,4.748 -12.576,7.122 -19.476,7.122 -8.366,0 -15.224,-2.856 -20.575,-8.569 -5.351,-5.713 -8.027,-13.188 -8.027,-22.424 0,-9.126 2.523,-16.332 7.568,-21.618 5.045,-5.287 11.815,-7.93 20.31,-7.93 7.141,0 13.875,2.374 20.2,7.123 l 0,-17.139 z m 97.935,-4.229 -19.587,0 0,48.467 c 0,17.546 -5.954,26.319 -17.862,26.319 -5.991,0 -11.041,-2.541 -15.149,-7.623 -4.109,-5.082 -6.163,-11.574 -6.163,-19.475 l 0,-47.688 -19.587,0 0,131.767 19.587,0 0,-57.843 0.334,0 c 6.714,11.259 16.322,16.888 28.824,16.888 19.735,0 29.603,-12.047 29.603,-36.141 l 0,-54.671 z m 76.568,0 0,124.645 36.03,0 c 46.019,0 69.028,-20.255 69.028,-60.765 0,-19.234 -6.385,-34.689 -19.156,-46.366 -12.77,-11.676 -29.886,-17.514 -51.346,-17.514 l -34.556,0 z m 21.368,106.838 0,-89.031 16.443,0 c 14.486,0 25.754,3.974 33.804,11.922 8.05,7.948 12.075,19.174 12.075,33.678 0,28.954 -15.033,43.431 -45.1,43.431 l -17.222,0 z m 181.625,-67.664 -62.322,0 c 0.241,-7.975 2.847,-14.124 7.818,-18.446 4.971,-4.322 11.806,-6.483 20.505,-6.483 9.756,0 18.715,2.968 26.876,8.904 l 0,-16.944 c -8.383,-5.324 -19.457,-7.986 -33.219,-7.986 -13.522,0 -24.127,4.016 -31.815,12.048 -7.689,8.031 -11.533,19.336 -11.533,33.915 0,13.763 4.229,24.975 12.687,33.637 8.458,8.663 18.966,12.994 31.523,12.994 12.557,0 22.277,-3.882 29.158,-11.644 6.881,-7.763 10.322,-18.535 10.322,-32.316 l 0,-7.679 z m -21.368,14.245 c -0.055,6.752 -1.752,12.001 -5.091,15.748 -3.339,3.746 -7.948,5.62 -13.827,5.62 -5.769,0 -10.652,-1.971 -14.649,-5.913 -3.997,-3.941 -6.46,-9.093 -7.387,-15.455 l 40.954,0 z m 115.742,35.613 -35.112,-89.032 -22.258,0 -33.442,89.032 21.924,0 20.505,-62.266 c 1.558,-4.582 2.523,-8.579 2.893,-11.992 l 0.279,0 c 0.538,4.285 1.372,8.171 2.504,11.658 l 21.507,62.6 21.2,0 z m 90.814,-49.857 -62.323,0 c 0.241,-7.976 2.847,-14.125 7.818,-18.447 4.971,-4.322 11.806,-6.483 20.505,-6.483 9.757,0 18.716,2.968 26.877,8.904 l 0,-16.944 c -8.384,-5.324 -19.457,-7.985 -33.22,-7.985 -13.522,0 -24.127,4.015 -31.815,12.047 -7.689,8.031 -11.533,19.337 -11.533,33.916 0,13.762 4.229,24.975 12.687,33.637 8.458,8.662 18.966,12.993 31.523,12.993 12.558,0 22.277,-3.881 29.158,-11.644 6.882,-7.762 10.323,-18.534 10.323,-32.315 l 0,-7.679 z m -21.368,14.244 c -0.056,6.752 -1.753,12.001 -5.092,15.748 -3.338,3.747 -7.948,5.62 -13.828,5.62 -5.768,0 -10.651,-1.971 -14.648,-5.912 -3.997,-3.942 -6.459,-9.094 -7.387,-15.456 l 40.955,0 z m 56.981,-53.419 -19.587,0 0,131.768 19.587,0 0,-131.768 z m 67.08,-1.78 c -13.892,0 -24.984,4.131 -33.276,12.395 -8.291,8.263 -12.436,19.221 -12.436,32.872 0,14.857 4.321,26.459 12.965,34.806 8.644,8.347 20.292,12.52 34.945,12.52 14.079,0 25.045,-4.057 32.901,-12.172 7.855,-8.115 11.782,-19.379 11.782,-33.791 0,-14.096 -4.233,-25.392 -12.701,-33.887 -8.467,-8.496 -19.86,-12.743 -34.18,-12.743 z m 1.03,76.567 c -7.828,0 -14.014,-2.726 -18.558,-8.179 -4.544,-5.454 -6.817,-12.975 -6.817,-22.564 0,-9.237 2.301,-16.513 6.9,-21.827 4.6,-5.314 10.759,-7.971 18.475,-7.971 7.864,0 13.911,2.61 18.14,7.832 4.229,5.221 6.343,12.654 6.343,22.299 0,9.701 -2.114,17.195 -6.343,22.481 -4.229,5.286 -10.276,7.929 -18.14,7.929 z m 85.387,-61.32 -0.361,0 0,-54.421 -19.588,0 0,129.987 19.588,0 0,-15.887 0.361,0 c 7.011,11.778 17.269,17.667 30.772,17.667 11.5,0 20.463,-3.955 26.891,-11.866 6.427,-7.911 9.64,-18.534 9.64,-31.871 0,-14.783 -3.626,-26.621 -10.878,-35.515 -7.253,-8.894 -17.158,-13.341 -29.715,-13.341 -11.556,0 -20.459,5.082 -26.71,15.247 z m -0.528,34.806 0,-10.935 c 0,-6.436 2.091,-11.894 6.274,-16.373 4.182,-4.48 9.501,-6.719 15.956,-6.719 7.549,0 13.475,2.884 17.778,8.653 4.304,5.768 6.455,13.818 6.455,24.15 0,8.68 -2.003,15.474 -6.009,20.379 -4.007,4.907 -9.441,7.359 -16.304,7.359 -7.253,0 -13.091,-2.527 -17.514,-7.581 -4.424,-5.055 -6.636,-11.366 -6.636,-18.933"
       style="fill:#7e7e7e;fill-opacity:1;fill-rule:nonzero;stroke:none"
       id="path3028" /></g></svg>