<?xml version="1.0" encoding="utf-8"?>
<!-- Generator: Adobe Illustrator 20.1.0, SVG Export Plug-In . SVG Version: 6.00 Build 0)  -->
<svg version="1.1" id="Layer_1" xmlns="http://www.w3.org/2000/svg" xmlns:xlink="http://www.w3.org/1999/xlink" x="0px" y="0px"
	 viewBox="0 0 166.8 28.6" style="enable-background:new 0 0 166.8 28.6;" xml:space="preserve">
<style type="text/css">
	.st0{display:none;}
	.st1{display:inline;fill:#1E1E1C;}
	.st2{fill:#FFFFFF;}
</style>
<g id="Black_Panel" class="st0">
	<rect x="147.5" y="116.5" class="st1" width="295.3" height="189.5"/>
</g>
<g id="Logo">
	<g>
		<g>
			<path class="st2" d="M71.5,23.1h-3.3V14c0-2-1.2-3.5-2.8-3.5c-1.6,0-2.8,1.4-2.8,3.5v9.1h-3.2V14c0-2.3-1.4-3.5-2.8-3.5
				c-1.6,0-2.8,1.4-2.8,3.5v9.1h-3.3v-9c0-4.1,2.5-6.9,6.1-6.9c1.7,0,3.1,0.7,4.4,2.1c1.2-1.4,2.7-2.1,4.5-2.1c3.6,0,6,2.9,6,6.9
				L71.5,23.1L71.5,23.1z"/>
		</g>
		<g>
			<path class="st2" d="M77.5,23.1h-3.3V7.6h3.3V23.1z M75.9,5.3c-1.2,0-2.1-0.9-2.1-2.1c0-1.2,0.9-2.1,2.1-2.1S78,2,78,3.2
				C78,4.4,77,5.3,75.9,5.3z"/>
		</g>
		<g>
			<path class="st2" d="M88,23.5c-2.1,0-4.2-0.9-5.7-2.4S80,17.6,80,15.3c0-2.2,0.8-4.3,2.3-5.8s3.6-2.4,5.7-2.4
				c2.3,0,4.3,0.8,5.8,2.3l0.4,0.4l-2.4,2.4l-0.4-0.4c-1.1-1-2.2-1.5-3.4-1.5c-2.6,0-4.8,2.2-4.8,4.9s2.1,4.9,4.8,4.9
				c1.2,0,2.3-0.5,3.4-1.4l0.4-0.4l2.4,2.3L93.7,21C92,22.7,90.1,23.5,88,23.5z"/>
		</g>
		<g>
			<path class="st2" d="M100,23.1h-3.5v-7.8c0-5,2.2-7.4,7-7.8l0.7-0.1v3.3l-0.5,0.1c-2.6,0.3-3.6,1.5-3.6,4.3v8H100z"/>
		</g>
		<g>
			<path class="st2" d="M113.2,23.5c-2.1,0-4.2-0.9-5.7-2.4s-2.3-3.6-2.3-5.8s0.8-4.2,2.3-5.8s3.5-2.4,5.7-2.4
				c2.1,0,4.1,0.9,5.6,2.4s2.3,3.6,2.3,5.8s-0.8,4.3-2.3,5.8C117.3,22.7,115.3,23.5,113.2,23.5z M113.2,10.5c-2.5,0-4.6,2.2-4.6,4.9
				s2.1,4.9,4.6,4.9c2.6,0,4.6-2.1,4.6-4.9S115.7,10.5,113.2,10.5z"/>
		</g>
		<g>
			<path class="st2" d="M126.6,23.1c-1.2,0-2.3-1-2.3-2.3s1-2.3,2.3-2.3s2.3,1,2.3,2.3S127.9,23.1,126.6,23.1z"/>
		</g>
		<g>
			<path class="st2" d="M126.6,11.7c-1.2,0-2.3-1-2.3-2.3s1-2.3,2.3-2.3s2.3,1,2.3,2.3S127.9,11.7,126.6,11.7z"/>
		</g>
		<g>
			<path class="st2" d="M140,23.5c-4.7,0-8-3.7-8-8.9c0-0.3,0-0.7,0-1V0.2h3.3v8.5c1.4-1,3-1.5,4.7-1.5c2.1,0,4.1,0.8,5.6,2.4
				c1.5,1.5,2.3,3.6,2.3,5.8s-0.8,4.3-2.3,5.8C144.1,22.7,142.1,23.5,140,23.5z M140,10.5c-2.6,0-4.8,2.2-4.8,4.9s2.1,4.9,4.8,4.9
				c2.6,0,4.8-2.2,4.8-4.9S142.6,10.5,140,10.5z"/>
		</g>
		<g>
			<path class="st2" d="M154.1,23.1h-3.3V7.6h3.3V23.1z M152.5,5.3c-1.2,0-2.1-0.9-2.1-2.1c0-1.2,0.9-2.1,2.1-2.1s2.1,0.9,2.1,2.1
				C154.6,4.4,153.6,5.3,152.5,5.3z"/>
		</g>
		<g>
			<path class="st2" d="M166.5,23.6l-0.7-0.1c-4.9-0.9-6.7-3.3-6.7-8.6V11h-1.4V7.8h1.4V4.4h3.3v3.4h4.1V11h-4.1v4.4
				c0,2.9,1.1,4.4,3.5,4.7l0.5,0.1v3.4H166.5z"/>
		</g>
	</g>
	<g>
		<path class="st2" d="M32.4,18c1.5,0,2.6-1.2,2.6-2.6s-1.2-2.6-2.6-2.6c-1.5,0-2.6,1.2-2.6,2.6S30.9,18,32.4,18"/>
		<path class="st2" d="M13.1,12.8c-1.5,0-2.6,1.2-2.6,2.6s1.2,2.6,2.6,2.6s2.6-1.2,2.6-2.6S14.5,12.8,13.1,12.8"/>
		<path class="st2" d="M13.1,7.6c-4.3,0-7.8,3.5-7.8,7.8s3.5,7.8,7.8,7.8h19.5c4.3,0,7.8-3.5,7.8-7.8s-3.5-7.8-7.8-7.8H13.1
			 M32.6,28.4H13.1c-7.2,0-13-5.8-13-13s5.8-13,13-13h19.5c7.2,0,13,5.8,13,13C45.6,22.6,39.8,28.4,32.6,28.4"/>
	</g>
</g>
</svg>